<mxfile host="app.diagrams.net" modified="2023-10-27T06:37:24.095Z" agent="Mozilla/5.0 (Windows NT 10.0; Win64; x64) AppleWebKit/537.36 (KHTML, like Gecko) Chrome/118.0.0.0 Safari/537.36 Edg/118.0.2088.69" version="22.0.8" etag="CDuIXxBpudL4tVFDs8D8" type="github">
  <diagram name="第 1 页" id="vu9u_9UJf7Hvpd7u5Vb3">
    <mxGraphModel>
      <root>
        <mxCell id="0" />
        <mxCell id="1" parent="0" />
      </root>
    </mxGraphModel>
  </diagram>
</mxfile>
